<svg width="239" height="236" viewBox="0 0 239 236" fill="none" xmlns="http://www.w3.org/2000/svg">
<path d="M110.376 0.477359C127.665 -1.08594 145.086 1.20169 161.386 7.17547C190.375 17.3997 214.073 38.799 227.199 66.6047C242.556 99.2611 240.725 132.049 228.795 165.203C227.66 165.257 226.525 165.292 225.389 165.309C191.453 165.974 163.668 146.012 155.193 112.628C152.407 101.652 152.156 92.6912 151.962 81.5073C150.026 86.1009 148.091 91.8298 146.154 96.6764C142.286 105.543 137.176 113.813 130.979 121.239C98.3172 159.919 52.8464 160.612 7.33962 164.501C4.37435 154.118 1.45043 143.274 0.46879 132.513C-2.4097 100.958 8.10364 68.0216 28.2653 43.6998C48.774 18.9087 78.3365 3.34692 110.376 0.477359Z" fill="#8565EE"/>
<path d="M167.82 180.357C176.363 179.521 183.991 185.712 184.934 194.248C185.876 202.784 179.782 210.494 171.262 211.538C165.656 212.23 160.112 209.851 156.749 205.311C153.385 200.77 152.723 194.771 155.015 189.606C157.307 184.44 162.198 180.908 167.82 180.357Z" fill="#00B25F"/>
<path d="M45.6212 165.971C56.5705 164.301 92.4301 165.405 101.212 172.393C103.453 174.176 107.344 179.924 109.208 182.509C109.609 183.065 113.929 182.472 114.765 182.355C120.733 181.519 122.585 181.841 128.136 183.625C134.399 168.573 147.272 166.358 162.463 165.989C181.586 165.523 207.401 164.412 224.777 172.244C226.69 173.106 225.959 183.111 225.894 185.038C222.642 188.081 221.235 189.505 218.494 193.001C215.065 228.229 201.044 236.361 167.377 235.167C137.74 233.607 129.18 220.755 127.478 192.455C126.443 191.952 125.381 191.506 124.298 191.118C118.064 188.878 114.907 190.067 109.334 192.739C107.498 214.875 102.734 231.071 77.3887 234.503C63.42 236.395 44.519 236.239 32.6153 227.524C22.5921 220.179 20.011 204.248 18.4639 192.642C16.3251 190.263 13.3823 187.533 11.0557 185.249C10.956 182.019 10.3766 175.409 11.7784 172.895C16.8988 167.684 37.8053 166.583 45.6212 165.971ZM205.421 177.264C196.067 171.571 173.261 172.325 162.151 173.418C145.932 174.901 132.895 175.957 135.297 196.783C136.288 205.381 138.635 215.689 145.62 221.596C153.914 228.181 173.597 228.46 183.712 227.157C191.293 226.249 198.123 224.75 202.841 218.192C208.84 209.849 216.239 183.847 205.421 177.264ZM99.4073 208.363C109.867 173.604 87.2796 172.548 60.1739 172.909C56.8595 172.954 52.0292 172.908 48.6729 173.416C34.7924 174.948 23.3445 175.711 25.9258 194.127C27.2946 203.891 30.5172 216.333 38.838 222.763C47.55 228.813 67.8324 228.182 77.6475 226.731C78.1835 226.649 78.7175 226.561 79.2501 226.466C90.4032 223.963 96.0685 219.46 99.4073 208.363Z" fill="#00B25F"/>
<path d="M78.2836 180.26C86.8425 179.219 94.6455 185.262 95.7831 193.812C96.9199 202.362 90.9684 210.236 82.4353 211.47C76.8295 212.284 71.2196 210.016 67.7479 205.537C64.2769 201.059 63.4783 195.06 65.6585 189.83C67.8388 184.599 72.6609 180.944 78.2836 180.26Z" fill="#00B25F"/>
</svg>
