<svg width="184" height="56" viewBox="0 0 184 56" fill="none" xmlns="http://www.w3.org/2000/svg">
<path d="M65.792 46V23.6H73.568C76.1707 23.6 78.3253 24.0693 80.032 25.008C81.7387 25.9253 82.9973 27.2267 83.808 28.912C84.64 30.576 85.056 32.5387 85.056 34.8C85.056 37.0613 84.64 39.0347 83.808 40.72C82.9973 42.384 81.7387 43.6853 80.032 44.624C78.3467 45.5413 76.192 46 73.568 46H65.792ZM70.112 42.288H73.344C75.1787 42.288 76.6293 41.9893 77.696 41.392C78.7627 40.7947 79.52 39.9413 79.968 38.832C80.416 37.7013 80.64 36.3573 80.64 34.8C80.64 33.2213 80.416 31.8773 79.968 30.768C79.52 29.6373 78.7627 28.7733 77.696 28.176C76.6293 27.5787 75.1787 27.28 73.344 27.28H70.112V42.288ZM88.0078 46V30.128H91.7838L92.1678 33.36H92.2318C92.6584 32.464 93.1491 31.7493 93.7038 31.216C94.2798 30.6827 94.9304 30.3093 95.6558 30.096C96.3811 29.8613 97.1918 29.744 98.0878 29.744V34.32H96.9038C96.1998 34.32 95.5598 34.3947 94.9838 34.544C94.4291 34.6933 93.9491 34.9493 93.5438 35.312C93.1598 35.6533 92.8611 36.112 92.6478 36.688C92.4344 37.264 92.3278 37.9787 92.3278 38.832V46H88.0078ZM101.091 46.16C100.301 46.16 99.6614 45.9253 99.1708 45.456C98.6801 44.9653 98.4348 44.3787 98.4348 43.696C98.4348 42.992 98.6801 42.3947 99.1708 41.904C99.6614 41.4133 100.301 41.168 101.091 41.168C101.859 41.168 102.488 41.4133 102.979 41.904C103.469 42.3947 103.715 42.992 103.715 43.696C103.715 44.3787 103.469 44.9653 102.979 45.456C102.488 45.9253 101.859 46.16 101.091 46.16ZM113.667 46V23.6H117.987V42.64H127.811V46H113.667ZM130.719 52.72L134.527 44.208H133.599L127.103 30.128H131.807L136.415 40.368H136.479L140.607 30.128H145.215L135.295 52.72H130.719ZM147.258 46V30.128H151.034L151.418 33.36H151.482C151.908 32.464 152.399 31.7493 152.954 31.216C153.53 30.6827 154.18 30.3093 154.906 30.096C155.631 29.8613 156.442 29.744 157.338 29.744V34.32H156.154C155.45 34.32 154.81 34.3947 154.234 34.544C153.679 34.6933 153.199 34.9493 152.794 35.312C152.41 35.6533 152.111 36.112 151.898 36.688C151.684 37.264 151.578 37.9787 151.578 38.832V46H147.258ZM164.758 46.384C163.457 46.384 162.379 46.1707 161.526 45.744C160.673 45.3173 160.043 44.7413 159.638 44.016C159.233 43.2907 159.03 42.4907 159.03 41.616C159.03 40.6347 159.275 39.7707 159.766 39.024C160.278 38.2773 161.046 37.7013 162.07 37.296C163.094 36.8693 164.385 36.656 165.942 36.656H169.942C169.942 35.8667 169.825 35.2267 169.59 34.736C169.377 34.224 169.035 33.84 168.566 33.584C168.118 33.328 167.542 33.2 166.838 33.2C166.006 33.2 165.291 33.392 164.694 33.776C164.118 34.1387 163.755 34.704 163.606 35.472H159.414C159.542 34.2987 159.926 33.2853 160.566 32.432C161.227 31.5787 162.102 30.9173 163.19 30.448C164.278 29.9787 165.494 29.744 166.838 29.744C168.374 29.744 169.697 30 170.806 30.512C171.915 31.0027 172.769 31.7387 173.366 32.72C173.963 33.68 174.262 34.8533 174.262 36.24V46H170.646L170.166 43.536H170.102C169.825 43.984 169.505 44.3893 169.142 44.752C168.779 45.0933 168.374 45.392 167.926 45.648C167.499 45.8827 167.019 46.064 166.486 46.192C165.953 46.32 165.377 46.384 164.758 46.384ZM165.974 43.056C166.55 43.056 167.062 42.96 167.51 42.768C167.958 42.5547 168.331 42.2773 168.63 41.936C168.95 41.5947 169.195 41.2 169.366 40.752C169.558 40.2827 169.686 39.8027 169.75 39.312H166.422C165.761 39.312 165.217 39.3973 164.79 39.568C164.385 39.7173 164.086 39.9413 163.894 40.24C163.702 40.5173 163.606 40.848 163.606 41.232C163.606 41.616 163.702 41.9467 163.894 42.224C164.086 42.5013 164.363 42.7147 164.726 42.864C165.089 42.992 165.505 43.056 165.974 43.056Z" fill="black"/>
<path d="M29.499 0.0973052C33.0233 -0.221359 36.5743 0.244952 39.8971 1.46265C45.8062 3.54676 50.6368 7.9088 53.3124 13.5767C56.4428 20.2334 56.0696 26.917 53.6377 33.6751C53.4064 33.6861 53.1749 33.6933 52.9434 33.6967C46.0259 33.8322 40.3621 29.7631 38.6346 22.9581C38.0666 20.7208 38.0156 18.8942 37.976 16.6145C37.5814 17.5509 37.1869 18.7186 36.7921 19.7066C36.0036 21.5139 34.9621 23.1997 33.6987 24.7134C27.041 32.5979 17.7722 32.7393 8.49611 33.5319C7.89167 31.4155 7.29566 29.205 7.09556 27.0115C6.50881 20.5793 8.65185 13.8656 12.7616 8.90779C16.9421 3.85437 22.9682 0.682238 29.499 0.0973052Z" fill="#8565EE"/>
<path d="M41.2085 36.7641C42.95 36.5936 44.5049 37.8557 44.697 39.5957C44.8891 41.3357 43.6469 42.9072 41.9102 43.1201C40.7674 43.2611 39.6373 42.7761 38.9517 41.8507C38.2662 40.9251 38.1312 39.7023 38.5983 38.6494C39.0655 37.5965 40.0625 36.8763 41.2085 36.7641Z" fill="#00B25F"/>
<path d="M16.2989 33.8316C18.5307 33.4913 25.8405 33.716 27.6309 35.1402C28.0878 35.5037 28.8808 36.6757 29.2608 37.2027C29.3425 37.3161 30.2234 37.1953 30.3936 37.1715C31.6102 37.0012 31.9877 37.0665 33.1192 37.4303C34.3958 34.3622 37.0198 33.9109 40.1163 33.8355C44.0142 33.7407 49.2765 33.5135 52.8184 35.11C53.2082 35.2857 53.0594 37.3257 53.046 37.7184C52.3832 38.3384 52.0967 38.6289 51.5381 39.3414C50.839 46.5223 47.9809 48.1804 41.1182 47.9371C35.0768 47.6191 33.3324 44.9988 32.9854 39.2301C32.7746 39.1275 32.5578 39.0366 32.337 38.9576C31.0662 38.501 30.4222 38.7431 29.2862 39.2877C28.912 43.8 27.9408 47.1018 22.7745 47.8014C19.9272 48.187 16.0749 48.1548 13.6485 46.3785C11.6054 44.8813 11.0791 41.634 10.7637 39.2682C10.3278 38.7834 9.72819 38.2268 9.25396 37.7613C9.23364 37.103 9.11469 35.7553 9.40044 35.2428C10.4441 34.1807 14.7054 33.9565 16.2989 33.8316ZM48.8731 36.1334C46.9664 34.9729 42.3174 35.1273 40.0528 35.3502C36.7466 35.6524 34.0895 35.8675 34.5792 40.1129C34.7812 41.8652 35.2591 43.9664 36.6827 45.1705C38.3732 46.5128 42.3854 46.5697 44.4473 46.3043C45.9927 46.119 47.3851 45.813 48.3467 44.4762C49.5696 42.7755 51.0783 37.4754 48.8731 36.1334ZM19.2657 35.2457C18.5901 35.2547 17.6051 35.2455 16.921 35.3492C14.0917 35.6614 11.7582 35.8173 12.2842 39.5709C12.5632 41.5611 13.2209 44.0972 14.917 45.4078C16.6929 46.6409 20.8264 46.5132 22.8272 46.2174C22.9365 46.2008 23.0457 46.1821 23.1543 46.1627C25.4277 45.6525 26.5822 44.7344 27.2627 42.4723C29.3946 35.3875 24.7908 35.172 19.2657 35.2457Z" fill="#00B25F"/>
<path d="M22.9574 36.7442C24.702 36.532 26.2926 37.7638 26.5245 39.5066C26.7562 41.2495 25.543 42.8546 23.8037 43.1062C22.661 43.2721 21.5174 42.8096 20.8098 41.8968C20.1022 40.9839 19.9395 39.7611 20.3839 38.6949C20.8283 37.6288 21.8112 36.8837 22.9574 36.7442Z" fill="#00B25F"/>
</svg>
